<?xml version="1.0" standalone="no"?>
<!DOCTYPE svg PUBLIC "-//W3C//DTD SVG 20010904//EN"
 "http://www.w3.org/TR/2001/REC-SVG-20010904/DTD/svg10.dtd">
<svg version="1.0" xmlns="http://www.w3.org/2000/svg"
 width="225.000000pt" height="58.000000pt" viewBox="0 0 225.000000 58.000000"
 preserveAspectRatio="xMidYMid meet">

<g transform="translate(0.000000,58.000000) scale(0.100000,-0.100000)"
fill="#000000" stroke="none">
<path d="M1926 510 c-32 -39 -46 -85 -53 -182 -17 -219 99 -364 171 -214 16
34 19 36 66 36 37 0 55 5 70 20 25 25 25 43 -2 91 -18 33 -19 41 -8 56 13 17
13 17 -5 1 -17 -16 -20 -16 -54 14 -20 17 -39 43 -42 57 -6 23 -7 24 -8 4 -1
-22 -2 -22 -31 -5 -25 14 -27 18 -12 24 10 3 3 6 -18 5 -19 0 -48 2 -65 6 -28
7 -28 6 3 -6 l33 -13 -36 -17 c-19 -9 -38 -17 -40 -17 -13 0 -2 50 19 97 32
68 59 77 98 34 15 -17 28 -38 28 -46 0 -8 4 -15 9 -15 17 0 -10 59 -36 80 -35
28 -57 25 -87 -10z m87 -126 c18 -9 54 -32 80 -52 l48 -35 -22 -23 c-31 -33
-37 -30 -42 19 -4 40 -4 40 -3 -7 0 -48 -1 -49 -47 -73 l-47 -23 -43 22 c-23
12 -45 21 -49 20 -5 -1 -8 26 -8 60 l0 63 48 22 c26 11 48 22 50 22 2 1 17 -6
35 -15z m161 -138 c20 -42 20 -45 -1 -68 -11 -12 -30 -18 -63 -18 l-47 0 6 35
c4 24 17 42 40 60 19 14 38 25 42 25 4 0 14 -15 23 -34z m-227 -50 c26 -14 60
-28 76 -31 31 -8 31 -8 13 -43 -22 -42 -52 -65 -75 -57 -18 6 -68 82 -59 90 2
1 17 7 33 13 29 11 29 11 -7 6 -36 -6 -38 -5 -38 20 0 14 2 26 4 26 2 0 26
-11 53 -24z m105 -18 c-5 -5 -22 -6 -37 -2 l-28 7 34 18 c30 15 34 15 37 2 2
-8 0 -19 -6 -25z"/>
<path d="M1782 424 c-25 -18 -28 -44 -8 -82 17 -32 86 -101 86 -85 0 6 -7 13
-15 16 -19 8 -75 86 -75 106 0 31 19 45 67 52 l48 6 -40 2 c-23 0 -50 -6 -63
-15z"/>
<path d="M2095 423 c44 -3 67 -10 85 -26 21 -19 22 -19 10 -2 -24 32 -32 35
-95 33 l-60 -2 60 -3z"/>
<path d="M2185 359 c-4 -6 -5 -12 -2 -15 2 -3 7 2 10 11 7 17 1 20 -8 4z"/>
<path d="M990 245 l0 -105 70 0 c58 0 71 3 80 19 14 27 13 114 -2 129 -7 7
-36 12 -65 12 -50 0 -53 1 -53 25 0 16 -6 25 -15 25 -12 0 -15 -18 -15 -105z
m123 -7 c7 -51 -8 -70 -51 -66 -37 3 -37 4 -40 51 l-3 47 44 0 c43 0 45 -1 50
-32z"/>
<path d="M1370 335 c0 -8 7 -15 15 -15 8 0 15 7 15 15 0 8 -7 15 -15 15 -8 0
-15 -7 -15 -15z"/>
<path d="M1430 257 c0 -106 6 -117 62 -117 49 0 54 27 6 32 -32 3 -33 5 -33
48 0 43 1 45 33 48 19 2 32 9 32 17 0 8 -13 15 -32 17 -27 2 -33 7 -31 26 2
16 -2 22 -17 22 -19 0 -20 -7 -20 -93z"/>
<path d="M50 240 c0 -82 3 -100 15 -100 12 0 15 15 15 73 l1 72 40 -43 c45
-47 41 -48 85 16 26 36 34 26 34 -48 0 -56 3 -70 15 -70 12 0 15 18 15 100 0
92 -2 100 -19 100 -11 0 -36 -19 -55 -42 l-37 -43 -37 43 c-61 69 -72 60 -72
-58z"/>
<path d="M1829 323 c-13 -17 -13 -17 6 -3 11 8 22 16 24 17 2 2 0 3 -6 3 -6 0
-17 -8 -24 -17z"/>
<path d="M300 239 c0 -87 9 -99 75 -99 42 0 55 -3 55 -15 0 -11 -12 -15 -50
-15 -38 0 -50 -4 -50 -15 0 -13 11 -15 62 -13 74 4 76 9 70 136 -3 60 -8 82
-18 82 -9 0 -14 -18 -16 -62 l-3 -63 -40 0 -40 0 -3 63 c-3 54 -6 62 -22 62
-18 0 -20 -7 -20 -61z"/>
<path d="M500 293 c-1 -24 57 -153 68 -153 7 0 22 23 34 50 11 28 24 50 28 50
4 0 17 -22 28 -50 12 -27 27 -50 35 -50 8 0 23 28 37 68 13 37 25 73 28 80 2
6 -3 12 -12 12 -9 0 -21 -12 -26 -27 -26 -72 -26 -72 -51 -20 -14 29 -30 47
-41 47 -11 0 -25 -17 -39 -47 l-21 -48 -20 48 c-11 26 -27 47 -34 47 -8 0 -14
-3 -14 -7z"/>
<path d="M802 278 c-12 -35 -6 -120 10 -129 7 -5 44 -9 81 -9 58 0 68 2 65 16
-2 13 -16 17 -62 18 -84 1 -88 24 -4 28 60 3 63 4 66 30 6 53 -12 68 -84 68
-58 0 -65 -2 -72 -22z m118 -23 c0 -11 -12 -15 -45 -15 -33 0 -45 4 -45 15 0
11 12 15 45 15 33 0 45 -4 45 -15z"/>
<path d="M1181 281 c-27 -50 0 -81 71 -81 35 0 48 -4 46 -12 -5 -15 -62 -20
-93 -8 -29 11 -37 3 -24 -21 8 -15 21 -19 67 -19 70 0 85 9 85 50 0 40 -15 50
-75 50 -38 0 -48 4 -48 16 0 14 9 16 61 11 52 -4 60 -3 57 11 -3 14 -17 18
-70 20 -58 3 -68 0 -77 -17z"/>
<path d="M1370 220 c0 -64 3 -80 15 -80 12 0 15 16 15 80 0 64 -3 80 -15 80
-12 0 -15 -16 -15 -80z"/>
<path d="M1562 283 c-9 -19 -8 -104 2 -129 4 -10 25 -14 81 -14 66 0 76 2 73
17 -2 14 -14 16 -66 14 -50 -2 -62 1 -62 13 0 12 14 16 63 18 59 3 62 4 65 30
6 53 -12 68 -83 68 -51 0 -66 -4 -73 -17z m118 -28 c0 -11 -12 -15 -45 -15
-33 0 -45 4 -45 15 0 11 12 15 45 15 33 0 45 -4 45 -15z"/>
<path d="M1770 258 c-11 -18 -20 -40 -20 -49 0 -17 30 -49 46 -49 4 0 -2 7
-14 16 -27 19 -28 39 -2 82 11 17 17 32 15 32 -3 0 -14 -15 -25 -32z"/>
<path d="M1823 153 c9 -2 25 -2 35 0 9 3 1 5 -18 5 -19 0 -27 -2 -17 -5z"/>
</g>
</svg>
